<?xml version="1.0" encoding="UTF-8" standalone="no"?>
<!-- Created with Inkscape (http://www.inkscape.org/) -->

<svg
   width="44.000641mm"
   height="23.73715mm"
   viewBox="0 0 44.000641 23.73715"
   version="1.1"
   id="svg1"
   xmlns="http://www.w3.org/2000/svg"
   xmlns:svg="http://www.w3.org/2000/svg">
  <defs
     id="defs1">
    <rect
       x="161.6637"
       y="32.593487"
       width="215.76888"
       height="45.630878"
       id="rect10" />
  </defs>
  <g
     id="layer1"
     transform="translate(-80.891222,-85.69853)">
    <g
       id="g9"
       transform="translate(0,25.698606)">
      <path
         id="path9"
         style="fill:#ffffff;fill-opacity:1;stroke:#ffffff;stroke-width:0;stroke-linecap:butt;stroke-linejoin:round;stroke-miterlimit:2.8;stroke-dasharray:none;stroke-opacity:1;paint-order:markers stroke fill;image-rendering:auto"
         d="m 118.78761,83.737077 c 0.0918,-0.0358 0.18509,-0.0684 0.27543,-0.10789 0.32728,-0.15933 0.67216,-0.27527 1.0418,-0.29374 0.0979,-0.005 0.19595,8e-4 0.29404,0.001 0.11182,0.0104 0.2247,0.0158 0.3359,0.0312 0.22339,0.031 0.60319,0.11381 0.81958,0.15399 0.3565,0.0662 0.71422,0.114 1.07384,0.15782 0.65163,-0.0899 1.24519,-0.41226 1.66398,-0.90302 0.0471,-0.12687 0.10667,-0.19981 0.17983,-0.25271 0.26623,-0.39979 0.41156,-0.86338 0.41961,-1.33886 0,-0.075 0,-0.22479 0,-0.22479 -0.32227,-0.12526 -0.30519,-0.10765 -0.82373,-0.60513 -0.13164,-0.1819 -0.1248,-0.38124 -0.0517,-0.581 0.14379,-0.32278 0.49879,-0.44289 0.80098,-0.60049 0.0389,-0.0202 0.0356,-0.0185 0.0744,-0.0387 -2e-5,-1.04757 -4e-5,-3.14209 -4e-5,-3.14209 -7.9e-4,-0.0212 -0.001,-0.0468 0,-0.0709 -4e-5,-2.73918 -7e-5,-8.215906 -7e-5,-8.215906 -0.1209,-0.08028 -0.24352,-0.157131 -0.36794,-0.231978 -0.8349,-0.401153 -0.60309,-0.165348 -1.36838,-0.860802 -0.13274,-0.160953 -0.15143,-0.253826 -0.0284,-0.440582 0.12299,-0.186706 0.31114,-0.245963 0.51522,-0.318936 0.419,-0.12999 0.86454,-0.201822 1.24953,-0.41011 10e-6,-0.768443 4e-5,-2.304868 4e-5,-2.304868 -0.38489,-0.25052 -0.52588,-0.566359 -0.16844,-1.000928 0.0182,-0.02219 0.10316,-0.0475 0.16847,-0.06958 0,-0.0463 1e-5,-0.138872 1e-5,-0.138872 1.4e-4,-0.768944 -0.64471,-1.404053 -1.44018,-1.418398 -1.94239,-0.03531 -5.826,-0.105926 -5.826,-0.105926 -0.0324,0.02876 -0.0695,0.05072 -0.10077,0.08107 -0.27418,0.266152 -0.16497,0.199768 -0.41084,0.460463 -0.0562,0.05957 -0.11879,0.112699 -0.17829,0.169244 -0.0665,0.03747 -0.12556,0.09075 -0.19948,0.112617 -0.081,0.024 -0.17971,0.06259 -0.25424,0.02169 -0.52511,-0.288101 -1.04271,-0.588962 -1.55802,-0.894201 -0.88953,-0.01617 -2.66806,-0.04851 -2.66806,-0.04851 -0.32724,0.18551 -0.62804,0.401331 -0.92399,0.659191 -0.0623,0.03362 -0.11984,0.07723 -0.18707,0.10071 -0.0849,0.02966 -0.29928,0.05387 -0.38706,0.0053 -0.6722,-0.371812 -1.17633,-0.626494 -1.57611,-0.821114 -0.92037,-0.01673 -2.76055,-0.05019 -2.76055,-0.05019 -0.0156,0.0031 -0.0308,0.0078 -0.0465,0.0103 -0.19544,0.0306 -0.61651,0.05909 -0.80047,0.07268 -0.48819,0.0361 -0.97545,0.07666 -1.46245,0.123792 -0.48051,0.05003 -0.9516,0.142625 -1.41955,0.251955 -0.40333,0.132856 -0.79293,0.299627 -1.17048,0.488899 -0.43415,0.223992 -0.92484,0.181581 -1.39113,0.0685 -0.893804,-0.30468 -0.862304,-0.313205 -1.409724,-0.679988 -0.30662,-0.104394 -0.62565,-0.179646 -0.94826,-0.144943 -0.0744,0.008 -0.14715,0.02583 -0.22066,0.03891 -0.46782,0.112922 -0.88041,0.354484 -1.30276,0.568154 -0.43527,0.222067 -0.81346,0.09586 -1.22784,-0.109331 -0.41136,-0.271956 -0.8825,-0.331016 -1.36219,-0.374391 -0.43231,-0.0082 -0.85329,-0.07223 -1.26813,-0.195159 -0.54769,-0.208965 -1.12898,-0.257825 -1.70687,-0.296756 -0.40742,0.0031 -0.83637,-0.07468 -1.23455,0.03516 -0.0574,0.01583 -0.11153,0.04041 -0.16743,0.06065 -0.21609,0.105552 -0.40882,0.250168 -0.64906,0.305799 -0.16729,0.03875 -0.24062,0.02632 -0.40979,0.02253 -0.23775,-0.03372 -0.45899,-0.131833 -0.6904,-0.190663 -0.21873,-0.05562 -0.22692,-0.04948 -0.46457,-0.08134 -0.50462,-0.0345 -0.97335,0.117897 -1.44487,0.257805 -0.50039,0.112029 -1.01596,0.159464 -1.52807,0.201812 -0.48042,0.04572 -0.96304,0.01367 -1.44539,0.0092 -0.43181,-0.01796 -0.70804,0.01012 -1.09761,0.184792 -0.0732,0.03796 -0.1445,0.07934 -0.21601,0.120231 -0.28417,0.420111 -0.43874,0.916121 -0.44493,1.427369 0,0.98153 0,2.944001 0,2.944001 0.0446,0.130684 0.10088,0.257241 0.18293,0.379221 0.15691,0.273918 0.27107,0.562463 0.35657,0.863899 0.0674,0.257934 0.0502,0.525311 0.0879,0.785734 0.0402,0.317161 0.037,0.636103 0.0486,0.954577 0.003,0.295655 0.0677,0.581242 0.0517,0.877067 -0.0849,0.38149 -0.23713,0.74258 -0.32763,1.12362 0.0681,0.31804 0.0481,0.64197 0.06,0.96404 0.0419,0.47759 0.0251,0.95578 0.015,1.43365 -0.0572,0.51929 -0.10317,1.03934 -0.12247,1.56176 -0.0204,0.34303 0.0431,0.68427 0.0879,1.02348 0.0435,0.32518 0.0615,0.65161 0.0739,0.97885 0.008,0.28308 -0.129,0.51718 -0.25425,0.76063 -0.0881,0.17876 -0.17513,0.35858 -0.25993,0.53922 0,1.15743 0,3.47161 0,3.47161 0.0255,0.0254 0.0517,0.05 0.077,0.0756 0.3676,0.3122 0.67183,0.68087 0.96636,1.05787 0.21526,0.29372 0.29124,0.52665 -0.0439,0.78638 -0.0521,0.0404 -0.11637,0.0618 -0.17467,0.0929 -0.11512,0.0825 -0.30589,0.12677 -0.47801,0.18161 0.27335,0.31981 0.67279,0.50389 1.09348,0.50422 1.61626,0 4.84779,0 4.84779,0 0.0297,-0.15555 0.0926,-0.29931 0.21755,-0.44428 0.24722,-0.21957 0.58425,-0.19408 0.89659,-0.20524 0.34526,-0.0219 0.68787,0.007 1.0263,0.0739 0.26388,0.079 0.49685,0.22106 0.7643,0.28925 0.34923,0.0971 0.69967,0.0212 1.04696,-0.0444 0.37474,-0.083 0.75421,-0.12496 1.13792,-0.11345 0.37069,0.007 0.67817,0.18876 0.99425,0.35356 0.0808,0.0399 0.1652,0.0641 0.24908,0.0906 0.47173,0 1.41491,0 1.41491,0 0.32557,-0.0908 0.6374,-0.22086 0.96739,-0.29989 0.35637,-0.0602 0.72962,-0.0981 1.08984,-0.0426 0.13751,0.0212 0.27324,0.0529 0.4098,0.0792 0.32082,0.0763 0.63658,0.17112 0.95291,0.26332 4.490204,0 13.467884,0 13.467884,0 0.26863,-0.12535 0.5488,-0.22564 0.83974,-0.28999 0.50143,-0.0917 0.98321,-0.26615 1.49086,-0.32257 0.28935,0.001 0.58513,0.0699 0.83871,0.20831 0.11885,0.0649 0.52783,0.29173 0.73225,0.40425 1.02371,0 2.04742,0 3.07113,0 m 6.104,-3.56121 c -10e-6,-0.002 -10e-6,-0.007 -10e-6,-0.007 -0.0197,-0.0106 -0.0392,-0.0216 -0.0589,-0.0321 0.0296,0.0195 0.0199,0.0151 0.0589,0.0391 z m -0.0589,-0.0391 c -0.0124,-0.008 -0.0161,-0.0114 -0.0243,-0.0171 0.006,0.002 -0.37511,-0.2007 -0.28061,-0.1517 0.10324,0.0535 0.20241,0.11395 0.30489,0.16875 z m -0.0243,-0.0171 c -0.002,-6.8e-4 0.0782,0.0423 0.0832,0.0452 0,-0.002 0,-0.007 0,-0.007 -0.041,-0.0224 -0.1011,-0.0549 -0.14211,-0.0773 -0.0195,-0.0107 0.0394,0.0261 0.0589,0.0396 z m 0.0831,-12.461242 c 0,-0.0015 0,-0.0045 0,-0.0045 -0.0392,-0.0205 -0.0826,-0.04431 -0.11886,-0.06295 0.0421,0.02396 0.0768,0.04349 0.11886,0.06744 z m -0.78548,-0.446763 c -0.0446,-0.02877 -0.0889,-0.05799 -0.13488,-0.08473 -0.0797,-0.04633 -0.32838,-0.178652 -0.24649,-0.132205 0.0584,0.0331 0.323,0.183833 0.38137,0.216933 z" />
      <rect
         style="fill:#000000;fill-opacity:1;stroke:none;stroke-width:1.40241;stroke-linecap:round;stroke-linejoin:bevel;stroke-opacity:1;paint-order:normal;image-rendering:auto"
         id="rect9"
         width="40"
         height="20"
         x="82.891563"
         y="61.868504" />
      <text
         xml:space="preserve"
         transform="matrix(0.26458333,0,0,0.26458333,31.763312,57.737002)"
         id="text9"
         style="font-style:normal;font-variant:normal;font-weight:normal;font-stretch:normal;font-size:33.3333px;font-family:'Typeface Mario 64';-inkscape-font-specification:'Typeface Mario 64, ';text-align:center;white-space:pre;shape-inside:url(#rect10);display:inline;fill:#000000;fill-opacity:1;stroke:#ffffff;stroke-width:9.44882;stroke-linecap:butt;stroke-linejoin:bevel;stroke-dasharray:none;stroke-opacity:1;paint-order:stroke markers fill"
         x="46.280003"
         y="0"><tspan
           x="202.14791"
           y="63.427054"
           id="tspan1">STAY</tspan></text>
    </g>
  </g>
</svg>
